<?xml version="1.0" encoding="UTF-8"?>
<svg version="1.1" xmlns="http://www.w3.org/2000/svg" width="500" height="500">
<path d="M0 0 C165 0 330 0 500 0 C500 165 500 330 500 500 C335 500 170 500 0 500 C0 335 0 170 0 0 Z " fill="#000000" transform="translate(0,0)"/>
<path d="M0 0 C0.82312967 6.73029555 1.2872616 13.41392253 1.5625 20.1875 C1.6049585 21.19111572 1.64741699 22.19473145 1.69116211 23.22875977 C1.9946403 30.82426329 2.11857231 38.3981977 2 46 C3.13179687 45.51402344 4.26359375 45.02804688 5.4296875 44.52734375 C10.05741794 42.80135286 14.21916236 42.49899075 19.125 42.5625 C19.95104736 42.57007324 20.77709473 42.57764648 21.62817383 42.58544922 C32.69559417 42.87875352 42.72135177 45.267864 51 53 C51.86625 53.763125 52.7325 54.52625 53.625 55.3125 C57.67200631 59.89200714 61.83350366 64.8758942 63 71 C63.66 71 64.32 71 65 71 C65.185625 70.195625 65.37125 69.39125 65.5625 68.5625 C69.6814712 58.35461485 77.82477904 51.84498877 87.62890625 47.328125 C92.70343423 45.5141346 97.66312702 45.5595615 103 45.625 C103.94617188 45.61339844 104.89234375 45.60179687 105.8671875 45.58984375 C111.9325549 45.61504611 116.45629571 46.52886766 122 49 C121.36364436 45.91444498 121.36364436 45.91444498 119.1796875 45.0859375 C114.44324728 43.62486611 109.93247181 42.52473104 105 42 C104.93941406 41.32453125 104.87882812 40.6490625 104.81640625 39.953125 C104.73261719 39.06109375 104.64882813 38.1690625 104.5625 37.25 C104.48128906 36.36828125 104.40007812 35.4865625 104.31640625 34.578125 C104.03761535 32.30649548 103.61209423 30.20148177 103 28 C104.03433127 27.05441313 105.07794146 26.11897416 106.125 25.1875 C106.70507812 24.66542969 107.28515625 24.14335937 107.8828125 23.60546875 C113.29917593 19.49822637 117.76451787 18.4704035 124.375 18.5625 C125.12942383 18.57007324 125.88384766 18.57764648 126.66113281 18.58544922 C133.136802 18.77772635 137.76495248 19.86552391 142.5078125 24.4609375 C146.85087571 29.3499858 148.24693533 32.90752555 148.27124023 39.38574219 C148.28652016 41.32861115 148.28652016 41.32861115 148.30210876 43.31072998 C148.30352025 44.34557652 148.30352025 44.34557652 148.30496025 45.40132904 C148.30863553 47.57154808 148.32539533 49.74131482 148.34571838 51.91143799 C148.40100527 58.08019562 148.43172779 64.24902045 148.45629883 70.41796875 C148.47225257 74.19638218 148.50255621 77.97447647 148.54106331 81.75272369 C148.55264887 83.18627766 148.55864309 84.61988891 148.55874443 86.05348969 C148.21274283 98.49833176 148.21274283 98.49833176 154 109 C155.27504571 115.22759168 153.476918 120.33577629 150.4921875 125.765625 C147.32477922 130.50844577 143.42368656 133.21273667 138 135 C130.54154962 135.84653857 123.79414457 136.09169484 117.62109375 131.4453125 C115.2984917 129.37455886 113.1014435 127.29845383 111 125 C112.30155006 129.07964281 112.30155006 129.07964281 114 133 C109.41964711 135.29017644 105.26221158 135.38534299 100.25 135.375 C99.44594727 135.37338867 98.64189453 135.37177734 97.81347656 135.37011719 C91.77011349 135.24508209 87.1418134 134.32027412 82 131 C80.96875 130.4225 79.9375 129.845 78.875 129.25 C72.71453855 124.4287693 67.65700221 118.44290681 65 111 C65 110.01 65 109.02 65 108 C64.34 108 63.68 108 63 108 C62.95875 108.804375 62.9175 109.60875 62.875 110.4375 C60.65940071 119.45815425 53.73125585 126.49330426 45.95703125 131.25 C38.48916462 135.17893563 32.62955199 136 24 136 C24 129.73 24 123.46 24 117 C26.76692708 116.05598958 29.53385417 115.11197917 32.30078125 114.16796875 C34.90493499 113.04113522 36.10826567 112.03143163 38 110 C38.66 110 39.32 110 40 110 C40.68774405 108.67741528 41.34711373 107.34013497 42 106 C42.53625 105.05125 43.0725 104.1025 43.625 103.125 C46.25814327 96.87297264 46.06239042 89.00293533 44.34375 82.52734375 C41.80479305 76.84752196 37.37579674 73.21251543 32.265625 69.86328125 C28.97020701 68.60761336 25.73181763 68.57536881 22.25 68.5625 C21.53569824 68.55863281 20.82139648 68.55476563 20.08544922 68.55078125 C14.82859711 68.66592106 11.44885233 69.62424476 7.3828125 72.90625 C6 74 6 74 4 74 C3.71382812 74.5878125 3.42765625 75.175625 3.1328125 75.78125 C2 78 2 78 0.9296875 79.71875 C-2.57022016 85.62970516 -2.98197579 91.25652023 -2 98 C0.24626961 105.37024866 4.21787955 110.35641402 11 114 C13.95542791 115.2069527 16.91430348 116.18571897 20 117 C20.0272616 119.04159095 20.04651345 121.08328963 20.0625 123.125 C20.07410156 124.26195312 20.08570313 125.39890625 20.09765625 126.5703125 C20.005327 129.8129156 19.61389906 132.81932612 19 136 C8.76749636 136.79906753 -0.06612276 134.28769343 -8.0859375 127.76953125 C-13.3321512 122.91946021 -18.4194153 117.77403483 -21 111 C-21 110.01 -21 109.02 -21 108 C-21.66 108 -22.32 108 -23 108 C-23.061875 108.66 -23.12375 109.32 -23.1875 110 C-25.43593747 118.30192296 -31.52580126 125.63310721 -38.6875 130.1875 C-47.08627263 134.93517414 -53.23088189 136 -63 136 C-63.33 129.73 -63.66 123.46 -64 117 C-62.494375 116.608125 -60.98875 116.21625 -59.4375 115.8125 C-52.71355581 113.7516301 -48.07335159 111.06933543 -44.0625 105.1875 C-40.71825512 98.56567293 -41.07523795 91.17436367 -42 84 C-44.22175036 77.65483159 -49.25633045 72.85544393 -55.23046875 69.89453125 C-61.38133268 67.90786293 -69.4365587 67.74390042 -75.58203125 69.91015625 C-82.20088128 73.84603074 -86.67517753 79.65845535 -89 87 C-89.97037205 94.12395093 -88.72162135 99.86237529 -85 106 C-80.20104426 111.86539035 -74.37058693 115.52588261 -67 117 C-67.33 123.27 -67.66 129.54 -68 136 C-80.81256403 136 -89.43121106 132.60149301 -99 124 C-111.0428922 110.72824125 -110.51559468 95.90004783 -110 79 C-114.95 79 -119.9 79 -125 79 C-125 95.83 -125 112.66 -125 130 C-134.25925926 134.62962963 -134.25925926 134.62962963 -140 135 C-141.58361328 135.11214844 -141.58361328 135.11214844 -143.19921875 135.2265625 C-151.17663386 135.55428334 -157.46697069 134.87731068 -164 130 C-167.04010763 126.46596184 -168.12778651 123.53061705 -168.11352539 118.89575195 C-168.11344986 118.07512772 -168.11337433 117.25450348 -168.11329651 116.40901184 C-168.10813522 115.52767075 -168.10297394 114.64632965 -168.09765625 113.73828125 C-168.0962413 112.83248825 -168.09482635 111.92669525 -168.09336853 110.99345398 C-168.08777001 108.09976909 -168.07521781 105.20616151 -168.0625 102.3125 C-168.05748481 100.35091258 -168.05292193 98.38932394 -168.04882812 96.42773438 C-168.03780107 91.61845979 -168.02053747 86.809243 -168 82 C-165.69 82 -163.38 82 -161 82 C-161 81.01 -161 80.02 -161 79 C-165.62 79 -170.24 79 -175 79 C-179.6441635 70.87271388 -179.96286246 63.1101602 -179 54 C-178.02329344 50.73308494 -176.79986138 47.89263436 -175 45 C-172.36 45 -169.72 45 -167 45 C-166.938125 43.865625 -166.87625 42.73125 -166.8125 41.5625 C-165.9491038 34.88004998 -162.70494557 29.27922788 -157.8125 24.6875 C-147.6460671 16.95498006 -136.32355371 16.77819077 -124 18 C-119.69831714 18.84586193 -115.88511893 19.96715666 -112 22 C-111.38729248 22.31146973 -110.77458496 22.62293945 -110.14331055 22.94384766 C-107.34092294 24.59447697 -105.35301134 25.79625325 -104.41040039 29.01049805 C-104.23673962 31.37749697 -104.28948126 33.63170021 -104.4375 36 C-104.45232422 36.7940625 -104.46714844 37.588125 -104.48242188 38.40625 C-104.75175384 46.69338726 -104.75175384 46.69338726 -107 50 C-112.71578957 52.51434337 -118.52848054 52.26904799 -124.6875 52.1875 C-125.62400391 52.18685547 -126.56050781 52.18621094 -127.52539062 52.18554688 C-131.53073055 52.15981664 -135.12937023 52.11199494 -139 51 C-136.94766315 53.2477975 -135.99332739 54.0022242 -133 55 C-131.08093083 55.08266486 -129.15910526 55.10740663 -127.23828125 55.09765625 C-126.12001953 55.09443359 -125.00175781 55.09121094 -123.84960938 55.08789062 C-122.68236328 55.07951172 -121.51511719 55.07113281 -120.3125 55.0625 C-119.13365234 55.05798828 -117.95480469 55.05347656 -116.74023438 55.04882812 C-113.82680133 55.03703285 -110.91339433 55.01909727 -108 55 C-107.01 60.445 -107.01 60.445 -106 66 C-105.195625 64.68 -104.39125 63.36 -103.5625 62 C-96.76563867 51.89999111 -87.78160087 45.94540022 -76 43 C-70.06 43 -64.12 43 -58 43 C-60.31 30.46 -62.62 17.92 -65 5 C-61.41180668 3.20590334 -60.01726706 2.72122697 -56.23828125 2.49755859 C-55.29629883 2.4376474 -54.35431641 2.37773621 -53.38378906 2.31600952 C-52.37026367 2.26071075 -51.35673828 2.20541199 -50.3125 2.1484375 C-48.73227051 2.05280014 -48.73227051 2.05280014 -47.12011719 1.95523071 C-44.88777461 1.82183373 -42.65517629 1.69265933 -40.42236328 1.56738281 C-37.04006458 1.37725217 -33.65874333 1.17419212 -30.27734375 0.96875 C-28.10160783 0.84037517 -25.92582766 0.71274789 -23.75 0.5859375 C-22.75266846 0.52659027 -21.75533691 0.46724304 -20.7277832 0.40609741 C-13.81256253 0.02282253 -6.92512286 -0.06449307 0 0 Z " fill="#FCFCFC" transform="translate(267,159)"/>
<path d="M0 0 C4.94382407 4.25398815 9.41791315 9.46803812 10.2734375 16.12890625 C10.59016073 23.71808208 8.62201826 29.84064937 3.578125 35.6328125 C-0.93593339 39.6857574 -5.9442362 42 -12 42 C-12.3125 39.4375 -12.3125 39.4375 -12 36 C-11.175 35.01 -10.35 34.02 -9.5 33 C-5.91467956 28.19433447 -6.44340169 23.33448622 -6.6875 17.5625 C-6.71005859 16.54478516 -6.73261719 15.52707031 -6.75585938 14.47851562 C-6.81441313 11.98412561 -6.89635692 9.49285517 -7 7 C-7.66 7 -8.32 7 -9 7 C-9 14.26 -9 21.52 -9 29 C-10.65 29 -12.3 29 -14 29 C-14 21.74 -14 14.48 -14 7 C-14.66 7 -15.32 7 -16 7 C-16 14.26 -16 21.52 -16 29 C-16.66 29 -17.32 29 -18 29 C-18 21.74 -18 14.48 -18 7 C-18.66 7 -19.32 7 -20 7 C-19.94814481 10.91774905 -19.85307131 14.83329005 -19.75 18.75 C-19.73582031 19.86117187 -19.72164062 20.97234375 -19.70703125 22.1171875 C-19.67480469 23.18710938 -19.64257812 24.25703125 -19.609375 25.359375 C-19.58842773 26.34389648 -19.56748047 27.32841797 -19.54589844 28.34277344 C-18.86310076 31.66637357 -17.41242455 32.70432488 -15 35 C-14.75 38.75 -14.75 38.75 -15 42 C-22.46722282 41.15302334 -26.96910714 38.56357564 -32 33 C-36.0221404 27.55064849 -36.26612922 20.59677891 -36 14 C-34.12351618 7.04923744 -28.95311019 1.84071625 -23 -2 C-15.46922605 -4.40984766 -6.79284324 -4.02025416 0 0 Z " fill="#F4F4F4" transform="translate(215,232)"/>
<path d="M0 0 C5.09348409 3.06267686 9.67762132 7.84536396 11.5625 13.5 C12.1770786 21.42907145 12.66842267 28.98718223 7.5625 35.5 C3.58437446 39.47812554 -0.22192002 41.63026378 -5.4375 43.5 C-6.4275 43.5 -7.4175 43.5 -8.4375 43.5 C-8.92327341 38.2536472 -8.55480779 35.29543625 -5.9375 30.6875 C-3.00808394 25.27934727 -2.40418846 20.56339413 -3.4375 14.5 C-4.74805892 11.21095979 -4.74805892 11.21095979 -7.4375 9.5 C-10.9375 8.66666667 -10.9375 8.66666667 -14.4375 9.5 C-17.23422332 11.65132563 -18.25278592 13.27626924 -18.78125 16.77734375 C-19.0228624 23.31094569 -18.00040348 29.36756242 -13.75 34.5625 C-11.78115102 37.46889612 -12.24071759 40.08910496 -12.4375 43.5 C-19.87249367 42.65667896 -24.50225918 40.13709222 -29.4375 34.5 C-33.8161103 28.6536302 -34.31268927 22.62959064 -33.4375 15.5 C-31.37954665 8.89288663 -27.84943948 4.45007873 -22.5 0.125 C-16.05542952 -3.23861354 -6.57381844 -2.87604557 0 0 Z " fill="#F9F9F9" transform="translate(299.4375,230.5)"/>
<path d="M0 0 C0.66 0 1.32 0 2 0 C2.01458252 1.03406982 2.02916504 2.06813965 2.04418945 3.13354492 C2.10230882 6.98236082 2.17954023 10.83059999 2.26245117 14.67895508 C2.29563655 16.34227108 2.32368834 18.00569796 2.34643555 19.66918945 C2.38009999 22.06509499 2.4324194 24.45999035 2.48828125 26.85546875 C2.49467117 27.5952446 2.5010611 28.33502045 2.50764465 29.09721375 C2.63323365 33.54075133 3.22418206 36.48269361 6 40 C8.57099402 41.34689915 8.57099402 41.34689915 11 42 C10.67 43.65 10.34 45.3 10 47 C1.09 47 -7.82 47 -17 47 C-17 45.35 -17 43.7 -17 42 C-16.195625 41.71125 -15.39125 41.4225 -14.5625 41.125 C-11.8673532 40.26737432 -11.8673532 40.26737432 -11 38 C-10.76285472 34.8597182 -10.8148166 31.71076199 -10.8125 28.5625 C-10.80025391 27.69044922 -10.78800781 26.81839844 -10.77539062 25.91992188 C-10.77345703 25.08138672 -10.77152344 24.24285156 -10.76953125 23.37890625 C-10.76336792 22.22757202 -10.76336792 22.22757202 -10.75708008 21.05297852 C-10.87949025 18.68992087 -10.87949025 18.68992087 -13 16 C-13.99 15.67 -14.98 15.34 -16 15 C-16 13.35 -16 11.7 -16 10 C-15.09636719 9.52949219 -14.19273437 9.05898437 -13.26171875 8.57421875 C-12.07016014 7.94560122 -10.87876228 7.31667891 -9.6875 6.6875 C-9.09259766 6.37876953 -8.49769531 6.07003906 -7.88476562 5.75195312 C-4.80824762 4.11916424 -2.39234462 2.51622006 0 0 Z " fill="#050505" transform="translate(245,187)"/>
<path d="M0 0 C5.27664817 3.22589844 10.32458829 8.66826249 12.5 14.5 C13.3344824 22.53738308 13.80010948 30.71714488 9.12890625 37.6640625 C5.5200528 41.73159516 1.10189798 45.84780398 -4.5 46.5 C-5.16 45.84 -5.82 45.18 -6.5 44.5 C-4.953125 43.9121875 -4.953125 43.9121875 -3.375 43.3125 C3.33089834 40.37274254 7.12234544 36.74568506 9.8046875 29.9609375 C11.45593546 24.11663294 11.36688054 18.73415489 8.8125 13.1875 C5.87110364 8.08633708 2.27140816 4.15562676 -3.34765625 2.00390625 C-10.65903874 0.29216697 -18.02482775 0.6677552 -24.5 4.5 C-28.84275937 8.03480414 -32.01374059 12.07645688 -33.5 17.5 C-33.95109624 24.57601942 -33.26892734 31.02399548 -29.02734375 36.8515625 C-25.50269433 40.65565983 -21.23772165 43.41540248 -16.5 45.5 C-19.07236407 46.47994822 -20.12239745 46.66752314 -22.68359375 45.53125 C-29.59718541 40.83432118 -34.68273337 35.92550893 -36.5 27.5 C-37.49418209 19.77493644 -35.96699356 13.89519222 -31.5 7.5 C-23.23930203 -1.34957941 -11.69350137 -5.20222699 0 0 Z " fill="#2F2F2F" transform="translate(213.5,228.5)"/>
<path d="M0 0 C5.80482216 3.59721577 10.59385707 8.91823999 13.11328125 15.30078125 C13.21434063 19.54527524 12.70674028 23.71895199 12.17578125 27.92578125 C11.84578125 27.92578125 11.51578125 27.92578125 11.17578125 27.92578125 C11.11970703 26.73082031 11.11970703 26.73082031 11.0625 25.51171875 C10.57019475 17.57691642 9.87222621 12.19287689 3.80078125 6.67578125 C-2.02637967 1.72668567 -7.86127237 1.37129357 -15.30078125 1.48046875 C-21.31995948 2.24120746 -25.27619426 5.02188742 -29.22265625 9.51953125 C-33.43153049 15.37016494 -33.49954315 21.96993993 -32.82421875 28.92578125 C-31.06542143 35.12395252 -27.15717717 39.43928801 -21.82421875 42.92578125 C-18.57803429 44.31783189 -18.57803429 44.31783189 -15.82421875 44.92578125 C-17.14421875 45.58578125 -18.46421875 46.24578125 -19.82421875 46.92578125 C-27.24430601 42.31200904 -33.56661361 37.85875124 -35.82421875 28.92578125 C-36.68304276 21.41365795 -36.28112977 15.1800695 -31.82421875 8.92578125 C-29.57421875 6.23828125 -29.57421875 6.23828125 -26.82421875 3.92578125 C-26.31761719 3.45914063 -25.81101562 2.9925 -25.2890625 2.51171875 C-18.47766788 -2.84757635 -7.92111299 -3.01287147 0 0 Z " fill="#232323" transform="translate(299.82421875,228.07421875)"/>
<path d="M0 0 C0.83203125 1.984375 0.83203125 1.984375 1 5 C-0.44135381 7.982535 -2.36151867 10.58149909 -4.3125 13.25 C-4.82490234 13.9821875 -5.33730469 14.714375 -5.86523438 15.46875 C-9.67971554 20.83985777 -9.67971554 20.83985777 -12 22 C-12.10883596 19.62374823 -12.18766696 17.25256024 -12.25 14.875 C-12.28351563 14.20984375 -12.31703125 13.5446875 -12.3515625 12.859375 C-12.45229203 7.72216885 -11.20848712 4.95119247 -8 1 C-5.04047717 -1.12715703 -3.40733104 -1.21690394 0 0 Z " fill="#F6F6F6" transform="translate(292,167)"/>
<path d="M0 0 C1.875 1.125 1.875 1.125 3 3 C3.54400387 6.65259739 3.43774093 8.3433886 1.375 11.4375 C-1 13 -1 13 -4.0625 13 C-7 12 -7 12 -8.9375 10.3125 C-10.39615475 7.13778084 -10.00471852 5.30121799 -9 2 C-5.53076119 -0.31282587 -4.07794425 -0.42478586 0 0 Z " fill="#0B0B0B" transform="translate(244,169)"/>
<path d="M0 0 C7.08456243 0.96103629 11.03210338 5.68772147 15.5 10.9375 C18.74542987 17.35559225 18.16398783 27.11646457 16.15234375 33.828125 C13.17043174 39.77173266 8.15743763 44.46871542 1.87890625 46.78125 C0.94884766 46.88953125 0.94884766 46.88953125 0 47 C-0.66 46.34 -1.32 45.68 -2 45 C-0.453125 44.4121875 -0.453125 44.4121875 1.125 43.8125 C7.83089834 40.87274254 11.62234544 37.24568506 14.3046875 30.4609375 C15.95593546 24.61663294 15.86688054 19.23415489 13.3125 13.6875 C10.01376488 7.93496894 5.43768941 4.54082101 0 1 C0 0.67 0 0.34 0 0 Z " fill="#181818" transform="translate(209,228)"/>
<path d="M0 0 C0.6875 1.8125 0.6875 1.8125 1 4 C-1.49914454 7.86964315 -5.99209454 8.24582384 -10.1875 9.1875 C-10.93708984 9.36474609 -11.68667969 9.54199219 -12.45898438 9.72460938 C-14.30374819 10.15936263 -16.15160066 10.58097276 -18 11 C-15.56461253 7.06251414 -13.42576841 4.14024409 -9.5625 1.5625 C-8.82128906 1.04816406 -8.08007812 0.53382813 -7.31640625 0.00390625 C-4.45460262 -1.23636952 -2.93989949 -0.87626634 0 0 Z " fill="#F3F3F3" transform="translate(302,177)"/>
<path d="M0 0 C0.99 0 1.98 0 3 0 C2.67 8.25 2.34 16.5 2 25 C0.68 24.67 -0.64 24.34 -2 24 C-2.05787784 20.37506666 -2.0935542 16.75025143 -2.125 13.125 C-2.14175781 12.09246094 -2.15851563 11.05992187 -2.17578125 9.99609375 C-2.18222656 9.00996094 -2.18867188 8.02382812 -2.1953125 7.0078125 C-2.20578613 6.09660645 -2.21625977 5.18540039 -2.22705078 4.24658203 C-2 2 -2 2 0 0 Z " fill="#0D0D0D" transform="translate(373,235)"/>
<path d="M0 0 C6.73938988 2.50531503 11.42867113 7.89417968 15 14 C16.86999269 18.73731482 15.62468009 24.0506116 15 29 C14.67 29 14.34 29 14 29 C13.96261719 28.20335937 13.92523438 27.40671875 13.88671875 26.5859375 C13.3944135 18.65113517 12.69644496 13.26709564 6.625 7.75 C1.33988725 3.2612741 -3.52966057 2.71740051 -10.3125 2.875 C-11.42334961 2.88853516 -11.42334961 2.88853516 -12.55664062 2.90234375 C-14.37123467 2.92575787 -16.18566071 2.96162385 -18 3 C-18 2.34 -18 1.68 -18 1 C-13.05570068 -1.47214966 -5.41668011 -0.74105752 0 0 Z " fill="#313131" transform="translate(297,227)"/>
<path d="M0 0 C0.33 0 0.66 0 1 0 C1.45500871 7.58347851 1.54787678 13.67123943 -3 20 C-10.51219512 28.45121951 -10.51219512 28.45121951 -16 29 C-16.66 28.34 -17.32 27.68 -18 27 C-16.948125 26.5875 -15.89625 26.175 -14.8125 25.75 C-8.20083463 22.83661023 -5.0805026 19.23110579 -2.00390625 12.75 C-0.47184471 8.55322442 -0.1039725 4.44246124 0 0 Z " fill="#111111" transform="translate(312,246)"/>
<path d="M0 0 C0.66 0 1.32 0 2 0 C1.69966463 6.00670738 -0.97422624 9.76644436 -5 14 C-7.48346896 16.06399628 -9.90409714 18.00981244 -13 19 C-15.2421875 18.1171875 -15.2421875 18.1171875 -17 17 C-15.96875 16.608125 -14.9375 16.21625 -13.875 15.8125 C-6.66568252 12.65205173 -3.54534674 8.97275428 -0.6640625 1.79296875 C-0.44492188 1.20128906 -0.22578125 0.60960937 0 0 Z " fill="#252525" transform="translate(224,256)"/>
<path d="M0 0 C0.66 0 1.32 0 2 0 C2.33 7.26 2.66 14.52 3 22 C2.01 21.67 1.02 21.34 0 21 C0 14.07 0 7.14 0 0 Z " fill="#303030" transform="translate(206,239)"/>
<path d="M0 0 C0.680625 0.721875 1.36125 1.44375 2.0625 2.1875 C6.09944519 6.22444519 10.75690342 9.6930375 16 12 C14.28515625 12.66796875 14.28515625 12.66796875 12 13 C9.74609375 11.92578125 9.74609375 11.92578125 7.4375 10.3125 C6.67308594 9.79300781 5.90867188 9.27351563 5.12109375 8.73828125 C2.9629831 6.96966387 1.46432204 5.371921 0 3 C0 2.01 0 1.02 0 0 Z " fill="#222222" transform="translate(181,262)"/>
<path d="M0 0 C1.05960938 0.00676758 1.05960938 0.00676758 2.140625 0.01367188 C3.88545275 0.02546125 5.630237 0.04339676 7.375 0.0625 C7.705 1.0525 8.035 2.0425 8.375 3.0625 C5.74972811 3.11632106 3.12555287 3.15608313 0.5 3.1875 C-0.24636719 3.20425781 -0.99273437 3.22101563 -1.76171875 3.23828125 C-3.71694461 3.2558959 -5.67242021 3.16570189 -7.625 3.0625 C-8.285 2.4025 -8.945 1.7425 -9.625 1.0625 C-6.55966836 -0.47016582 -3.35745728 -0.04026471 0 0 Z " fill="#3A3A3A" transform="translate(201.625,226.9375)"/>
<path d="M0 0 C1.4540625 0.0309375 1.4540625 0.0309375 2.9375 0.0625 C3.2675 1.3825 3.5975 2.7025 3.9375 4.0625 C-1.8125 3.3125 -1.8125 3.3125 -4.0625 1.0625 C-3.0625 0.0625 -3.0625 0.0625 0 0 Z " fill="#D5D5D5" transform="translate(289.0625,189.9375)"/>
<path d="M0 0 C0 0.66 0 1.32 0 2 C-1.75 3.5078125 -1.75 3.5078125 -4 5.125 C-4.7425 5.66382813 -5.485 6.20265625 -6.25 6.7578125 C-6.8275 7.16773438 -7.405 7.57765625 -8 8 C-8.66 7.67 -9.32 7.34 -10 7 C-3.18421053 0 -3.18421053 0 0 0 Z " fill="#161616" transform="translate(279,229)"/>
<path d="M0 0 C1.32 0.33 2.64 0.66 4 1 C-0.455 3.97 -0.455 3.97 -5 7 C-5.66 6.67 -6.32 6.34 -7 6 C-5.93106782 4.96409662 -4.84421512 3.94666058 -3.75 2.9375 C-3.14671875 2.36902344 -2.5434375 1.80054688 -1.921875 1.21484375 C-1.28765625 0.81394531 -0.6534375 0.41304687 0 0 Z " fill="#161616" transform="translate(190,229)"/>
<path d="M0 0 C1.65 0.33 3.3 0.66 5 1 C5 1.99 5 2.98 5 4 C3.35 4 1.7 4 0 4 C0 2.68 0 1.36 0 0 Z " fill="#F4F4F4" transform="translate(298,168)"/>
<path d="M0 0 C-0.33 0.99 -0.66 1.98 -1 3 C-4.0625 4.1875 -4.0625 4.1875 -7 5 C-7.66 4.34 -8.32 3.68 -9 3 C-2.25 0 -2.25 0 0 0 Z " fill="#292929" transform="translate(303,270)"/>
</svg>
